<svg preserveAspectRatio="none" width="100%" height="100%" overflow="visible" style="display: block;" viewBox="0 0 180 180" fill="none" xmlns="http://www.w3.org/2000/svg">
<g id="SVG default" clip-path="url(#clip0_0_4)">
<g id="BG">
<rect width="180" height="180" fill="#2F2F39"/>
</g>
<path id="Vector" d="M48.8177 50.0578L50.4359 50.781C50.6349 50.8758 50.8512 50.9189 51.0676 50.9189C51.5176 50.9189 51.9503 50.7294 52.2531 50.3678L53.8886 48.4218C55.6542 46.252 57.9387 45.1758 60.8632 45.1327C63.191 45.1327 65.8561 45.3738 68.7897 45.8387L77.8155 47.2852C81.1819 47.888 84.5135 48.1635 87.7148 48.1119C91.1768 48.1635 94.4213 47.621 97.3897 46.4845C99.951 45.5718 102.616 44.0392 105.308 41.921C107.194 40.5348 108.968 38.9418 110.569 37.1854C111.971 35.8421 113.303 34.2578 114.515 32.5013L116.54 29.6858C117.025 29.0141 116.886 28.0842 116.219 27.5762L114.826 26.5258C114.307 26.1297 113.589 26.1038 113.035 26.4654L110.413 28.2047C107.73 29.703 103.066 29.8235 96.5677 28.575L86.7026 26.5602C83.1632 25.8455 79.3555 25.4839 75.3923 25.4839C67.8987 25.5441 61.9968 27.6107 57.8606 31.6058C56.0523 33.2934 54.4165 35.2738 53.0059 37.4953C51.6214 39.6738 50.4964 41.7574 49.657 43.7034C49.6484 43.7292 49.6397 43.755 49.6311 43.7723L48.0129 48.1205C47.7274 48.8868 48.0821 49.7306 48.8177 50.0578Z" fill="var(--fill-0, #1A1A1A)"/>
<path id="Vector_2" d="M133.434 29.4877L132.058 28.2823C131.565 27.8432 130.846 27.7743 130.275 28.1015L126.044 30.5296C123.517 32.0623 120.93 33.8877 118.368 35.9455C113.981 39.3983 111.299 42.2655 110.156 44.7367C108.928 47.5264 108.279 51.3408 108.166 56.4555V129.084L108.088 134.301C107.794 147.957 101.728 148.061 99.7026 148.095C97.0374 148.19 93.2645 146.632 88.5052 143.463L81.3316 138.331C78.7529 136.471 76.1826 134.87 73.6994 133.544C70.4716 131.882 67.1916 131.038 63.9381 131.038C55.8903 131.038 49.2271 136.394 44.1129 146.95C44.1043 146.967 44.0956 146.985 44.0869 147.002L41.7419 152.314C41.5341 152.788 41.5774 153.33 41.863 153.77C42.1486 154.2 42.6332 154.467 43.1524 154.467H45.4974C46.008 154.467 46.4839 154.217 46.7695 153.795C49.5992 149.663 54.6439 148.81 62.1729 151.169L70.4716 153.812C73.0503 154.691 75.9664 155.457 79.1252 156.112C83.0968 157.05 86.5671 157.523 89.431 157.523C89.5871 157.523 89.7426 157.523 89.8897 157.523C95.0819 157.523 100.828 156.241 106.963 153.709C112.674 151.393 117.625 148.225 121.683 144.298C125.3 140.811 127.861 136.721 129.272 132.157C130.137 129.463 130.561 124.83 130.561 118.011V48.1292L130.726 40.7759L131.124 36.0575C131.401 34.4129 132.179 33.0008 133.495 31.7437C133.806 31.4509 133.97 31.0376 133.962 30.6071C133.945 30.1766 133.754 29.7719 133.434 29.4877Z" fill="var(--fill-0, #1A1A1A)"/>
<path id="Vector_3" d="M45.4898 147.621C50.3444 137.59 56.4884 132.579 63.9219 132.579C66.9419 132.579 69.9619 133.354 72.9819 134.912C75.4052 136.203 77.8884 137.754 80.4239 139.579L87.6239 144.728C92.6858 148.103 96.7355 149.739 99.7555 149.635C106.116 149.524 109.405 144.435 109.621 134.352L109.699 129.126V56.4632C109.803 51.6326 110.426 47.9388 111.559 45.3643C112.58 43.1687 115.168 40.4306 119.321 37.1587C121.857 35.118 124.357 33.3529 126.841 31.8461L131.046 29.4352L132.423 30.6406C130.856 32.1475 129.913 33.8867 129.593 35.8671L129.186 40.6975L129.022 48.1024V118.019C129.022 124.614 128.615 129.177 127.81 131.7C126.461 136.048 124.063 139.88 120.611 143.204C116.674 147.01 111.931 150.04 106.375 152.296C100.396 154.759 94.8923 155.999 89.8819 155.999C87.0265 156.05 83.5477 155.594 79.4548 154.63C76.331 153.984 73.5013 153.235 70.9658 152.374L62.6413 149.722C54.4461 147.147 48.7348 148.223 45.4984 152.942H43.1534L45.4898 147.621ZM51.0713 44.3138C51.8761 42.4368 52.9577 40.4392 54.3077 38.3211C55.6574 36.2029 57.189 34.3345 58.92 32.7329C62.8052 28.9788 68.3006 27.076 75.4136 27.0243C79.2987 27.0243 82.9594 27.3773 86.4123 28.0662L96.2768 30.0809C103.234 31.4242 108.219 31.2347 111.239 29.5213L113.905 27.7476L115.28 28.798L113.246 31.605C112.061 33.3184 110.789 34.8253 109.448 36.1082C107.881 37.8216 106.185 39.3543 104.351 40.6975C101.763 42.7382 99.2535 44.1847 96.831 45.0457C94.0271 46.122 90.9813 46.63 87.6929 46.5784C84.569 46.63 81.3587 46.3631 78.0703 45.7776L69.0097 44.3311C65.9897 43.8489 63.2729 43.6078 60.8413 43.6078C57.449 43.6595 54.7232 44.951 52.6722 47.4738L51.054 49.4026L49.4358 48.6793L51.0713 44.3138Z" fill="var(--fill-0, #FF8C00)"/>
<path id="Vector_4" d="M105.787 49.3071C106.072 48.9541 106.194 48.4978 106.107 48.05C106.021 47.6023 105.744 47.2148 105.346 46.9996L103.892 46.1988C103.407 45.9319 102.81 45.9405 102.334 46.2333L94.8748 50.8311C90.7213 53.4746 87.909 55.4722 86.2645 56.9361C83.3226 59.571 81.4968 62.7909 80.8477 66.5019C80.8387 66.5277 80.8387 66.5535 80.8387 66.5793L80.3542 70.5232C80.3458 70.5832 80.3458 70.6439 80.3458 70.7122V75.9387H76.5639C67.0974 75.8187 61.9568 80.7348 61.6626 90.1374C61.429 97.9381 65.9032 100.703 69.7019 101.641C69.7368 101.65 69.771 101.658 69.7974 101.658L70.6884 101.822C71.1387 101.899 71.5968 101.779 71.9516 101.494C72.2981 101.202 72.5058 100.771 72.5058 100.323V98.8426C72.5923 97.4219 73.2065 96.9742 74.1065 96.7761L76.6161 96.5522H80.3458V114.909C80.3974 119.99 79.8523 123.899 78.7187 126.525L77.1355 129.357C76.9187 129.736 76.8845 130.193 77.0226 130.597C77.1613 131.011 77.4729 131.338 77.8794 131.51L79.42 132.156C79.6103 132.234 79.8181 132.276 80.0168 132.276C80.2677 132.276 80.5187 132.216 80.7439 132.095L84.7852 129.926C84.811 129.908 84.8368 129.9 84.8626 129.883L91.1974 125.999C98.6826 121.169 102.534 114.41 102.654 105.903L102.732 98.0845V54.611C102.732 54.5851 102.732 54.5684 102.732 54.5419C102.697 53.6812 103.105 52.6651 103.944 51.5286L105.787 49.3071Z" fill="var(--fill-0, #1A1A1A)"/>
<path id="Vector_5" d="M70.0742 100.152C65.3323 98.9729 63.0387 95.649 63.2032 90.1729C63.4716 81.5884 67.9194 77.3523 76.5471 77.4639H81.8865V70.7052L82.371 66.7613C82.9594 63.3858 84.6032 60.4845 87.3032 58.0736C88.8697 56.6787 91.6736 54.6981 95.7142 52.1152L103.157 47.5258L104.61 48.3266L102.75 50.5825C101.668 52.029 101.157 53.3723 101.21 54.6032V58.5471V98.0516L101.132 105.852C101.019 113.843 97.4368 120.119 90.3755 124.683L84.0671 128.549L80.0258 130.719L78.4852 130.073L80.1039 127.18C81.3413 124.339 81.9381 120.232 81.8865 114.867V95.0032H76.5471L73.8819 95.2445C72.0471 95.6232 71.0781 96.8026 70.9742 98.7832V100.316L70.0742 100.152Z" fill="var(--fill-0, #FF8C00)"/>
<path id="Vector_6" d="M126.345 72.2194C121.655 76.8865 114.819 79.8742 108.156 80.2271V129.099L108.078 134.317C107.784 147.974 101.717 148.077 99.6929 148.111C97.711 148.188 95.1065 147.336 91.9477 145.588C92.0342 146.363 92.0948 147.147 92.1297 147.913C92.2594 151.323 91.6277 154.526 90.2342 157.514C95.3316 157.454 100.956 156.179 106.962 153.708C112.673 151.392 117.623 148.223 121.681 144.297C125.299 140.81 127.86 136.72 129.27 132.156C130.135 129.461 130.56 124.829 130.56 118.01V66.8381C129.478 68.8271 128.076 70.6181 126.345 72.2194Z" fill="var(--fill-0, #1A1A1A)"/>
<path id="Vector_7" d="M125.923 70.5219C121.691 74.7322 115.72 77.5651 109.697 78.34V129.115L109.619 134.341C109.403 144.424 106.115 149.521 99.7542 149.625C97.3316 149.711 94.251 148.669 90.5039 146.517C90.5555 147.059 90.5903 147.593 90.6161 148.126C90.72 150.882 90.331 153.499 89.4394 155.979C89.5865 155.979 89.7426 155.988 89.8897 155.979C94.9 155.979 100.403 154.748 106.383 152.277C111.939 150.021 116.681 146.999 120.618 143.184C124.071 139.861 126.468 136.021 127.817 131.681C128.623 129.158 129.029 124.603 129.029 117.999V66.9484C128.138 68.2226 127.108 69.4193 125.923 70.5219Z" fill="var(--fill-0, #FF8C00)"/>
<path id="Vector_8" d="M80.3368 96.5348V107.298C84.5774 104.284 89.5787 103.148 94.6413 101.795C97.3497 101.072 100.05 100.255 102.724 99.3761L102.741 98.0761V54.611C102.741 54.5851 102.741 54.5684 102.741 54.5419C102.706 53.6812 103.113 52.6651 103.952 51.5286L105.787 49.3071C106.072 48.9541 106.194 48.4978 106.107 48.05C106.021 47.6023 105.744 47.2148 105.346 46.9996L103.892 46.1988C103.407 45.9319 102.81 45.9405 102.334 46.2333L94.8748 50.8311C90.7213 53.4746 87.909 55.4722 86.2645 56.9361C83.3226 59.571 81.4968 62.7909 80.8477 66.5019C80.8387 66.5277 80.8387 66.5535 80.8387 66.5793L80.3542 70.5232C80.3458 70.5832 80.3458 70.6439 80.3458 70.7122V75.9387H76.5639C67.0974 75.8187 61.9568 80.7348 61.6626 90.1374C61.429 97.9381 65.9032 100.703 69.7019 101.641C69.7368 101.65 69.771 101.658 69.7974 101.658L70.6884 101.822C71.1387 101.899 71.5968 101.779 71.9516 101.494C72.2981 101.202 72.5058 100.771 72.5058 100.323V98.8426C72.5923 97.4219 73.2065 96.9742 74.1065 96.7761L76.6161 96.5522H80.3368V96.5348Z" fill="var(--fill-0, #1A1A1A)"/>
<path id="Vector_9" d="M70.9574 100.315V98.7826C71.0613 96.8019 72.0387 95.6226 73.8652 95.2439L76.5303 95.0026H81.869V111.354C86.4039 108.392 91.9071 106.67 97.2116 106.67C98.5271 106.67 99.8168 106.773 101.072 106.954C101.088 106.592 101.115 106.23 101.115 105.86L101.192 98.0594V54.6116C101.141 53.3801 101.651 52.0369 102.733 50.5904L104.594 48.3345L103.139 47.5337L95.6974 52.123C91.6561 54.6974 88.8529 56.6865 87.2865 58.0813C84.5865 60.4923 82.9426 63.3942 82.3542 66.7691L81.869 70.7129V77.4716H76.5303C67.9026 77.3684 63.4548 81.6045 63.1865 90.1807C63.0219 95.6484 65.3155 98.9807 70.0574 100.16L70.9574 100.315Z" fill="var(--fill-0, #FF8C00)"/>
</g>
<defs>
<clipPath id="clip0_0_4">
<rect width="180" height="180" fill="white"/>
</clipPath>
</defs>
</svg>
